<?xml version="1.0" encoding="UTF-8" standalone="no"?>
<!-- Creator: CorelDRAW -->

<svg
   xml:space="preserve"
   width="42.058998"
   height="20.709"
   style="clip-rule:evenodd;fill-rule:evenodd;image-rendering:optimizeQuality;shape-rendering:geometricPrecision;text-rendering:geometricPrecision"
   viewBox="0 0 42.059 20.708999"
   version="1.1"
   id="svg121"
   sodipodi:docname="oth.svg"
   inkscape:version="1.2.2 (b0a8486541, 2022-12-01)"
   xmlns:inkscape="http://www.inkscape.org/namespaces/inkscape"
   xmlns:sodipodi="http://sodipodi.sourceforge.net/DTD/sodipodi-0.dtd"
   xmlns="http://www.w3.org/2000/svg"
   xmlns:svg="http://www.w3.org/2000/svg"><sodipodi:namedview
   id="namedview123"
   pagecolor="#ffffff"
   bordercolor="#666666"
   borderopacity="1.0"
   inkscape:showpageshadow="2"
   inkscape:pageopacity="0.0"
   inkscape:pagecheckerboard="0"
   inkscape:deskcolor="#d1d1d1"
   inkscape:document-units="mm"
   showgrid="false"
   inkscape:zoom="21.852219"
   inkscape:cx="31.735907"
   inkscape:cy="12.49301"
   inkscape:window-width="1866"
   inkscape:window-height="1131"
   inkscape:window-x="54"
   inkscape:window-y="32"
   inkscape:window-maximized="1"
   inkscape:current-layer="Ebene_x0020_1" />
 <defs
   id="defs7">
  <style
   type="text/css"
   id="style2">
   <![CDATA[
    .fil1 {fill:#271E1E;fill-rule:nonzero}
    .fil0 {fill:white;fill-rule:nonzero}
   ]]>
  </style>
   <clipPath
   id="id0"
   style="clip-rule:nonzero">
    <path
   d="m 42.0547,21.0319 h 78.9926 z"
   id="path4" />
   </clipPath>
 </defs>
 <g
   id="Ebene_x0020_1"
   inkscape:label="Ebene 1"
   inkscape:groupmode="layer">
  <metadata
   id="CorelCorpID_0Corel-Layer" />
  
  
  <path
   id="polygon14"
   style="fill:#000000;fill-opacity:1;stroke-width:1.17083"
   class="fil0"
   d="m 16.408848,3.1290375 c 0.143959,0.5931437 -0.416788,1.8909928 0.585413,1.6258929 3.437014,0 6.874028,0 10.311042,0 0,-0.737102 0,-1.4742039 0,-2.2113058 -3.632152,0 -7.264303,0 -10.896455,0 0,0.1951377 0,0.3902754 0,0.5854129 z" />
  <path
   id="polygon16"
   style="fill:#000000;fill-opacity:1;stroke-width:1.17083"
   class="fil0"
   d="m 20.751422,5.7313808 c 0,4.2526283 10e-7,8.5052562 0,12.7578852 0.737103,0 1.474204,0 2.211306,0 0,-4.447766 0,-8.8955322 0,-13.3432981 -0.737102,0 -1.474203,0 -2.211306,0 0,0.1951377 0,0.3902752 0,0.5854129 z" />
  <path
   id="polygon18"
   style="fill:#000000;fill-opacity:1;stroke-width:1.17083"
   class="fil0"
   d="m 31.432921,9.9962056 c 0.143959,0.5931424 -0.416789,1.8909924 0.585413,1.6258934 2.217404,0 4.434808,-2e-6 6.652211,0 0,-0.737103 0,-1.474205 0,-2.2113068 -2.412541,0 -4.825083,0 -7.237624,0 0,0.1951377 0,0.3902754 0,0.5854134 z" />
  <path
   id="polygon20"
   style="fill:#000000;fill-opacity:1;stroke-width:1.17083"
   class="fil0"
   d="m 28.830578,3.1290375 c 0,5.120076 0,10.2401525 0,15.3602285 0.737101,0 1.474204,0 2.211306,0 0,-5.315214 0,-10.6304277 0,-15.9456414 -0.737102,0 -1.474205,1e-7 -2.211306,0 0,0.1951377 0,0.3902754 0,0.5854129 z" />
  <path
   id="polygon22"
   style="fill:#000000;fill-opacity:1;stroke-width:1.17083"
   class="fil0"
   d="m 39.061582,3.1290375 c 0,5.120076 0,10.2401525 0,15.3602285 0.737103,0 1.474205,0 2.211306,0 0,-5.315214 0,-10.6304277 0,-15.9456414 -0.737101,1e-7 -1.474203,1e-7 -2.211306,0 0,0.1951377 0,0.3902754 0,0.5854129 z" />
  <path
   id="path24"
   style="fill:#000000;fill-opacity:1;stroke-width:1.17083"
   class="fil0"
   d="m 14.055762,5.4615421 c -0.276834,0.4985657 -1.497692,0.918239 -0.804942,1.4978337 2.01054,2.4277351 1.463354,6.4295782 -1.145397,8.2075802 -2.1429836,1.641482 -5.3370731,1.384786 -7.3188458,-0.396876 -0.5393752,0.441742 -1.0640795,1.051588 -1.5998278,1.555902 2.0777809,1.849991 5.07452,2.667839 7.7650156,1.846477 3.65426,-0.997205 6.227349,-4.861174 5.680021,-8.618755 C 16.464725,7.8416146 15.613766,6.2902509 14.535985,4.9813205 14.37591,5.1413943 14.215836,5.3014682 14.055762,5.4615421 Z" />
  <path
   id="path26"
   style="fill:#000000;fill-opacity:1;stroke-width:1.17083"
   class="fil0"
   d="M 8.3296936,2.5527718 C 4.4654754,2.6682389 1.030097,5.9733634 0.78167114,9.8339897 0.55278348,12.101861 1.4414379,14.350256 2.9146238,16.05157 3.4376421,15.524964 3.9632866,15.000979 4.4879209,14.475986 2.8051198,12.596181 2.4340312,9.63509 3.8310023,7.4915393 5.4370037,4.7146828 9.5009666,3.8831374 12.057158,5.8296072 12.62171,6.5997252 13.070427,5.925314 13.532603,5.4313036 14.424049,4.8918938 14.159336,4.4380738 13.339325,4.0225519 11.899121,2.9842377 10.101534,2.4673348 8.3296936,2.5527718 Z" />
  
  
  
  
  
  
  
  
  
  
  
  
  
  
  
  
  
  
  
  
  
  
  
  
  
  
  
  
  
  
  
  
  
  
  
  
  
  
  
  
  
  
  
  
  
 </g>
</svg>
